<?xml version="1.0" encoding="UTF-8"?>
<svg id="Layer_1" data-name="Layer 1" xmlns="http://www.w3.org/2000/svg" xmlns:xlink="http://www.w3.org/1999/xlink" viewBox="0 0 571.99 148.93">
  <defs>
    <style>
      .cls-1, .cls-2 {
        fill: none;
      }

      .cls-3, .cls-4, .cls-5 {
        fill-rule: evenodd;
      }

      .cls-3, .cls-6 {
        fill: #fff;
      }

      .cls-7 {
        fill: url(#linear-gradient-2);
      }

      .cls-8 {
        fill: url(#linear-gradient);
      }

      .cls-9 {
        clip-path: url(#clippath-1);
      }

      .cls-10 {
        clip-path: url(#clippath-3);
      }

      .cls-11 {
        clip-path: url(#clippath-2);
      }

      .cls-4 {
        fill: red;
      }

      .cls-5 {
        fill: #ff0;
      }

      .cls-2 {
        stroke: #ff0;
        stroke-linecap: round;
        stroke-linejoin: round;
        stroke-width: 1.7px;
      }

      .cls-12 {
        clip-path: url(#clippath);
      }
    </style>
    <clipPath id="clippath">
      <rect class="cls-1" x="5.06" width="566.93" height="148.93"/>
    </clipPath>
    <clipPath id="clippath-1">
      <rect class="cls-1" x="259.3" y="79.4" width="16.57" height="8.5"/>
    </clipPath>
    <linearGradient id="linear-gradient" x1="5.06" y1="148.93" x2="6.06" y2="148.93" gradientTransform="translate(-1685.95 9.6) rotate(90) scale(13.12 -13.12)" gradientUnits="userSpaceOnUse">
      <stop offset="0" stop-color="#65b744"/>
      <stop offset=".11" stop-color="#65b744"/>
      <stop offset="1" stop-color="#008f41"/>
    </linearGradient>
    <clipPath id="clippath-2">
      <path class="cls-1" d="M20.68,106.83l22.88,11.8h25.74l2.5-5.06c11.08,7.35,22.16,7.35,33.25,0l1.32,4.66h25.85l2.25-7.91c.7,4.64,4.03,7.86,13.12,7.97h58.27l.71-2.02,1.79,3.03h38.96l-1.43-48.21c-5.57-14.02-5.87-26.42-28.96-25.96h-13.23l-3.22,7.08-2.15-6.74-63.99-.67-12.51-14.83-28.6.34-1.43,18.54c-5.39-4.53-11.99-6.3-20.38-4.05l-15.37-14.83-34.67-.34C4.89,50.91,0,75.37,20.68,106.83"/>
    </clipPath>
    <linearGradient id="linear-gradient-2" x1="5.06" y1="148.89" x2="6.06" y2="148.89" gradientTransform="translate(-13228.62 -424.04) rotate(90) scale(89.68 -89.68)" gradientUnits="userSpaceOnUse">
      <stop offset="0" stop-color="#65b744"/>
      <stop offset=".11" stop-color="#65b744"/>
      <stop offset="1" stop-color="#008f41"/>
    </linearGradient>
    <clipPath id="clippath-3">
      <rect class="cls-1" x="5.06" width="566.93" height="148.93"/>
    </clipPath>
  </defs>
  <g class="cls-12">
    <path class="cls-5" d="M257.08,90.17l4.64,3.49h16.92v-10.65c.29-4.3-1.6-6.05-4.98-6.06h-16.75l.17,13.22Z"/>
  </g>
  <g class="cls-9">
    <rect class="cls-8" x="259.66" y="74.36" width="15.84" height="18.58" transform="translate(57.62 269.42) rotate(-58.86)"/>
  </g>
  <g class="cls-11">
    <rect class="cls-7" y="29.63" width="247.32" height="91.3"/>
  </g>
  <g class="cls-10">
    <path class="cls-3" d="M223.36,82.91v7.35h-8.67c-.61-4.8,1.29-7.91,8.67-7.35M207.7,51.85l-4.41,13.51h12.11c9.98.13,3.83,4.84-3,6.42-6.83,1.57-10.15,4.36-11.73,10.92-1.58,6.56.29,15.55,2.71,19.84l15.79.03,2.36-1.78,2.63,1.79,13.44.03-2.71-37.59c-.87-12.1-4.56-13.16-12.16-13.16h-15.04Z"/>
    <path class="cls-3" d="M193.89,50.93l3.56,14.44h-13c-10.16,0-2.84,5.69,4.86,9.94,7.7,4.25,12.3,10.5,4.1,26.59h-26.6v-13.8h14.69c2.88-4.4-14.19-6.09-16.93-14.22-2.74-8.13.61-17.14,5.26-22.94h24.05Z"/>
    <path class="cls-3" d="M135.48,64.39h5.12v-13.3h-17.53c-6.87,16.24-2.65,34.64,7.01,50.31h15.11l2.03-1.53,2.57,1.53h11.53l.14-50.31h-13v37.63h-6.65c-7-7.36-8.36-14.65-6.33-24.33"/>
    <rect class="cls-6" x="99.05" y="35.98" width="15.73" height="65.92"/>
    <path class="cls-3" d="M69.71,63.58c-4.48,8.58-4.34,16.54.11,25.22h9.8c3.99-8.57,4.05-16.79-.21-25.22h-9.69ZM65.08,49.93h20.23c11.75,15.52,13.08,33.1,1.52,51.97h-23.84c-12.84-18.68-12.47-36.08,2.09-51.97"/>
    <path class="cls-3" d="M51.17,35.98l3.63,13.95h-20.24c-7.04,12.89-6.62,25.1,0,37.43h17.79v14.54h-24.63c-17.24-22.07-19.54-43.85,0-65.92h23.45Z"/>
    <g>
      <path class="cls-5" d="M291.37,34.43c8.05.06,16.07.12,24.15.18,2.09,3.09,4.2,6.19,6.35,9.28,2.36-3.19,4.74-6.37,7.16-9.55,23.05.1,46.14.19,69.25.28,1.23,1.97,2.49,3.95,3.75,5.93,1.77-2.06,3.57-4.14,5.37-6.2,15.27,0,30.53,0,45.82,0,.66,1.62,1.32,3.23,2,4.85,1.71-1.62,3.42-3.23,5.13-4.85,13.59,0,27.18,0,40.8,0,.67-1.15,1.34-2.32,2-3.48,7.07-.01,14.14-.02,21.18-.04,1.09,1.2,2.19,2.38,3.3,3.56,3.58.03,7.19.04,10.77.06.35-1.19.73-2.38,1.11-3.58h24.81c1.89,5.85,3.8,11.7,5.71,17.53-1.05,4.78-2.14,9.56-3.17,14.33-1.03,4.78-2.11,9.55-3.16,14.33-2.08,0-4.16,0-6.27,0-.08-.18-.17-.35-.23-.54-.02,6.95-.05,13.89-.07,20.83-.02,6.95-.05,13.89-.07,20.84-7.39,0-14.76-.02-22.1-.03-1.44-1.35-2.85-2.7-4.26-4.06-.23,1.36-.47,2.71-.68,4.05-17.88-.02-35.75-.05-53.57-.07-1.55-1.62-3.11-3.24-4.66-4.87-.06,1.64-.13,3.29-.2,4.93-13.54.02-27.09.04-40.58.05-13.49,0-27.03.03-40.52.03-9.27-.09-18.54-.19-27.78-.29-2.36-2.07-4.71-4.14-7.07-6.22-.01,2.08-.02,4.15-.04,6.21-9.56-.01-34.67-.03-44.2-.04q-11.24-7.01-22.51-14.06c.01-6.62.03-13.25.07-19.87.04-6.61.08-13.24.13-19.87-2.57-.02-5.17-.04-7.71-.07,1.62-4.93,3.34-9.86,4.97-14.79,1.63-4.92,3.32-9.86,5-14.79"/>
      <path class="cls-2" d="M291.37,34.43c8.05.06,16.07.12,24.15.18,2.09,3.09,4.2,6.19,6.35,9.28,2.36-3.19,4.74-6.37,7.16-9.55,23.05.1,46.14.19,69.25.28,1.23,1.97,2.49,3.95,3.75,5.93,1.77-2.06,3.57-4.14,5.37-6.2,15.27,0,30.53,0,45.82,0,.66,1.62,1.32,3.23,2,4.85,1.71-1.62,3.42-3.23,5.13-4.85,13.59,0,27.18,0,40.8,0,.67-1.15,1.34-2.32,2-3.48,7.07-.01,14.14-.02,21.18-.04,1.09,1.2,2.19,2.38,3.3,3.56,3.58.03,7.19.04,10.77.06.35-1.19.73-2.38,1.11-3.58h24.81c1.89,5.85,3.8,11.7,5.71,17.53-1.05,4.78-2.14,9.56-3.17,14.33-1.03,4.78-2.11,9.55-3.16,14.33-2.08,0-4.16,0-6.27,0-.08-.18-.17-.35-.23-.54-.02,6.95-.05,13.89-.07,20.83-.02,6.95-.05,13.89-.07,20.84-7.39,0-14.76-.02-22.1-.03-1.44-1.35-2.85-2.7-4.26-4.06-.23,1.36-.47,2.71-.68,4.05-17.88-.02-35.75-.05-53.57-.07-1.55-1.62-3.11-3.24-4.66-4.87-.06,1.64-.13,3.29-.2,4.93-13.54.02-27.09.04-40.58.05-13.49,0-27.03.03-40.52.03-9.27-.09-18.54-.19-27.78-.29-2.36-2.07-4.71-4.14-7.07-6.22-.01,2.08-.02,4.15-.04,6.21-9.56-.01-34.67-.03-44.2-.04q-11.24-7.01-22.51-14.06c.01-6.62.03-13.25.07-19.87.04-6.61.08-13.24.13-19.87-2.57-.02-5.17-.04-7.71-.07,1.62-4.93,3.34-9.86,4.97-14.79,1.63-4.92,3.32-9.86,5-14.79"/>
      <path class="cls-4" d="M322.09,53.76c-3.21-4.41-6.38-8.84-9.55-13.25-6,0-12.03,0-18,0-1.76,5.82-3.52,11.63-5.28,17.44h5.45v41.45h16.24v-17.56c0-5.85.03-11.7.03-17.56,3.69,5.29,7.38,10.58,11.08,15.86,3.52-5.37,6.98-10.75,10.47-16.13v35.38c6.06.03,12.15.05,18.27.06v-58.94h-19.36c-3.12,4.42-6.23,8.85-9.35,13.25M352.13,58.19h4.24c.03,6.88.06,13.74.08,20.6.03,6.87.09,13.74.14,20.59h17.08v-58.77c-5.86-.02-11.75-.03-17.6-.04-1.33,5.87-2.65,11.75-3.95,17.61M397.03,62.39c0-7.26,0-14.53.03-21.8h-17.11c-1.36,5.87-2.68,11.74-4.04,17.6h3.81c0,6.88-.03,13.74-.03,20.6v20.59c7.94,0,15.88,0,23.81,0,1.33-5.07,2.65-10.14,3.98-15.2h-10.44v-21.78ZM405.48,58.2h4.93c0,6.87-.01,13.73-.03,20.59-.01,6.86,0,13.73,0,20.59h16.94v-58.79h-16.24c-1.88,5.87-3.75,11.75-5.6,17.61M465.09,70.08c2.71-4.91,5.43-9.84,8.14-14.75,2.71-4.92,5.42-9.85,8.16-14.78-6.11.02-12.23.03-18.32.04-4.15,7.25-8.31,14.5-12.43,21.75-.03-7.25-.03-14.5-.03-21.75-5.19,0-10.38,0-15.55,0-1.85,5.87-3.66,11.75-5.51,17.61h5.08c-.06,6.88-.1,13.76-.12,20.63-.01,6.87-.08,13.75-.11,20.62,5.71,0,11.39,0,17.14,0v-15.81c3.12,5.26,6.23,10.5,9.35,15.74,6.69.03,13.36.07,20,.1-2.65-4.9-5.29-9.78-7.91-14.68-2.6-4.89-5.25-9.8-7.88-14.7M517.58,78.09c1.09-4.23,2.22-8.47,3.35-12.69h-19.33c-.09-2.02-.15-4.05-.2-6.08h16.42c2.14-7.35,4.3-14.7,6.46-22.06h-17.37c-.52,1.12-1.03,2.23-1.55,3.34h-19.79c-1.93,6.33-3.87,12.66-5.77,18.99h4.67c-.06,6.64-.12,13.28-.14,19.92-.03,6.64-.06,13.28-.06,19.92,10.96.02,21.96.03,32.92.04,1.01-4.45,2.05-8.91,3.09-13.36h-19.1v-7.74c5.48-.09,10.93-.18,16.42-.28M544.5,37.27c-.52,1.13-1.04,2.25-1.56,3.37-5.42,0-10.85-.02-16.24-.03-2.02,6.24-4.01,12.48-6,18.71h10.67c0,6.7.02,13.38.03,20.07.01,6.69,0,13.37,0,20.05,5.48,0,10.96,0,16.44,0v-40.1h7.33c1.81-7.33,3.64-14.68,5.45-22.03-5.39-.01-10.76-.01-16.13-.01"/>
    </g>
  </g>
</svg>